# xmcd
#
# Track frame offsets:
#	150
#	17309
#	43349
#	68080
#	85129
#	105616
#	129902
#	154948
#	173018
#	192295
#	213948
#	236224
#
# Disc length: 3387 seconds
# Revision: 0
# Processed by: cddbd v1.5.2PL0 Copyright (c) Steve Scherf et al.
# Submitted via: dBpowerAMP V12.0
#
DISCID=980d390c
DTITLE=Kenny Wayne Shepherd Band - Trouble Is...
DYEAR=1997
DGENRE=Blues
TTITLE0=01 - Slow Ride
TTITLE1=02 - True Lies
TTITLE2=03 - Blue On Black
TTITLE3=04 - Everything Is Broken
TTITLE4=05 - I Don't Live Today
TTITLE5=06 - (Long) Gone
TTITLE6=07 - Somehow, Somewhere, Someway
TTITLE7=08 - I Found Love, (When I Found You)
TTITLE8=09 - King's Highway
TTITLE9=10 - Nothing To Do With Love
TTITLE10=11 - Chase The Rainbow
TTITLE11=12 - Trouble Is
EXTD=
EXTT0=
EXTT1=
EXTT2=
EXTT3=
EXTT4=
EXTT5=
EXTT6=
EXTT7=
EXTT8=
EXTT9=
EXTT10=
EXTT11=
PLAYORDER=
